
        <svg xmlns="http://www.w3.org/2000/svg" xmlns:xlink="http://www.w3.org/1999/xlink" version="1.1" width="3171.0912641898162" 
        height="725.4269601648214" viewBox="0 0 3171.0912641898162 725.4269601648214">
			
			<g transform="scale(8.55456320949082) translate(10, 10)">
				<defs id="SvgjsDefs9678"></defs><g id="SvgjsG9679" featureKey="nameLeftFeature-0" transform="matrix(2.6550354957580566,0,0,2.6550354957580566,-2.699427759166509,-2.101083079719139)" fill="#ffffff"><path d="M5.8303 6.441000000000001 c4.4068 0 6.9661 3.5424 6.9661 6.7288 c0 3.6102 -2.5763 6.8303 -6.9661 6.8303 l-4.4746 0 c-0.18644 0 -0.33898 -0.15238 -0.33898 -0.33881 l0 -12.898 c0 -0.16949 0.13559 -0.32203 0.32203 -0.32203 l4.4915 0 z M5.8303 17.6612 c2.7966 0 4.4746 -2.1866 4.4576 -4.5086 c0 -2.288 -1.5932 -4.3727 -4.4576 -4.3727 l-2.4068 0 l0.016949 8.8814 l2.3898 0 z M23.593213559322034 8.78 l-6.1697 -0.00033103 l0 3.4068 l3.322 0 c0.18644 0 0.33898 0.15254 0.33898 0.33915 l0 1.6778 c0 0.20339 -0.13559 0.3222 -0.33898 0.3222 l-3.322 0 l0 3.1356 l6.1695 0 c0.18644 0 0.33881 0.15238 0.33881 0.33881 l0 1.6613 c0 0.18644 -0.15238 0.33881 -0.33881 0.33881 l-8.2542 0 c-0.18644 0 -0.33898 -0.15238 -0.33898 -0.33881 l0 -12.898 c0 -0.16949 0.13559 -0.32203 0.3222 -0.32203 l8.2712 0 c0.18644 0 0.33881 0.15254 0.33881 0.32203 l0 1.6949 c0 0.18644 -0.15238 0.32203 -0.33881 0.32203 z M28.372749152542372 6.441000000000001 l-1.6778 0 c-0.18644 0 -0.32203 0.15254 -0.32203 0.32203 l0 12.898 c0 0.18644 0.15254 0.33881 0.33898 0.33881 l1.678 0 c0.16933 0 0.32186 -0.16933 0.32186 -0.33881 l0 -12.898 c0 -0.16949 -0.16949 -0.32203 -0.33898 -0.32203 z M42.77979661016949 6.441000000000001 c0.16949 0 0.33915 0.15254 0.33915 0.32203 l0 12.915 c0 0.16949 -0.13559 0.32186 -0.32203 0.32186 l-0.55932 0 c-0.45763 0 -0.94915 -0.32203 -1.5593 -1 l-6.9322 -7.7456 l0 8.4068 c0 0.16949 -0.15254 0.32203 -0.33915 0.32203 l-1.7288 0.016784 c-0.18644 0 -0.33898 -0.15238 -0.33898 -0.33881 l0 -12.898 c0 -0.16949 0.15254 -0.32203 0.32203 -0.32203 l1 0 c0.18644 0 0.30508 0.067797 0.45763 0.25424 l7.5763 8.678 l0 -8.6102 c0 -0.16949 0.13559 -0.32203 0.32203 -0.32203 l1.7627 0 z"></path></g><g id="SvgjsG9680" featureKey="inlineSymbolFeature-0" transform="matrix(2.0250000953674316,0,0,2.0250000953674316,132,0)" fill="#39e991"><g xmlns="http://www.w3.org/2000/svg" display="none"><rect x="-289.328" y="-186.667" display="inline" fill="#39e991" width="473.333" height="236"></rect></g><g xmlns="http://www.w3.org/2000/svg" display="none"><g display="inline"><polygon points="21.789,14.314 32,32 11.578,32   "></polygon></g><g display="inline"><circle fill="#39e991" cx="8.683" cy="8.683" r="8.683"></circle></g></g><g xmlns="http://www.w3.org/2000/svg"><g><polygon points="11.579,32 32,32 21.789,14.314   "></polygon><circle cx="8.683" cy="8.683" r="8.683"></circle></g></g><g xmlns="http://www.w3.org/2000/svg" display="none"><g display="inline"><path fill="#39e991" d="M21.789,16.314L30.268,31H13.311L21.789,16.314 M21.789,14.314L11.578,32H32L21.789,14.314L21.789,14.314z    "></path></g><g display="inline"><path fill="#39e991" d="M8.683,1c4.237,0,7.683,3.447,7.683,7.683s-3.447,7.683-7.683,7.683S1,12.92,1,8.683S4.447,1,8.683,1     M8.683,0C3.888,0,0,3.888,0,8.683s3.888,8.683,8.683,8.683c4.796,0,8.683-3.888,8.683-8.683S13.479,0,8.683,0L8.683,0z"></path></g></g><g xmlns="http://www.w3.org/2000/svg" display="none"><g display="inline"><circle fill="#39e991" cx="8.683" cy="8.683" r="8.183"></circle><g><path d="M8.683,1c4.237,0,7.683,3.447,7.683,7.683s-3.447,7.683-7.683,7.683S1,12.92,1,8.683S4.447,1,8.683,1 M8.683,0     C3.888,0,0,3.888,0,8.683s3.888,8.683,8.683,8.683c4.796,0,8.683-3.888,8.683-8.683S13.479,0,8.683,0L8.683,0z"></path></g></g><g display="inline"><polygon fill="#39e991" points="12.445,31.5 21.789,15.314 31.134,31.5   "></polygon><g><path d="M21.789,16.314L30.268,31H13.311L21.789,16.314 M21.789,14.314L11.578,32H32L21.789,14.314L21.789,14.314z"></path></g></g></g></g><g id="SvgjsG9681" featureKey="nameRightFeature-0" transform="matrix(2.6318764686584473,0,0,2.6318764686584473,202.72534504533184,-1.9504907585621822)" fill="#ffffff"><path d="M12.643925423728813 12.932400000000001 c1.5932 0.52542 2.5254 1.8646 2.5254 3.4068 c0 2.1695 -1.8983 3.6608 -4.1356 3.6608 l-5.3898 0 c-0.15238 0 -0.22017 -0.08458 -0.22017 -0.22017 l0 -13.119 c0 -0.15254 0.067797 -0.22034 0.22017 -0.22034 l5.1017 0 c2.2034 0 3.7288 1.6949 3.7288 3.5085 c0 1.4237 -0.77966 2.4915 -1.8305 2.9831 z M10.457425423728814 12.5258 c3.4746 0 3.5763 -4.7966 0.067797 -4.7966 l-3.7627 0 l0 4.7966 l3.6949 0 z M10.779625423728813 18.7122 c4.0508 0 4.0678 -4.9322 -0.033898 -4.9322 l-3.9831 0 l0 4.9322 l4.0169 0 z M27.69484745762712 6.441000000000001 l-0.89797 0 c-0.16949 0 -0.23729 0.050847 -0.23729 0.22051 l0 8.1524 c0 2.8305 -2.1186 4.0169 -4.0341 4.0169 c-1.8644 0 -3.9492 -1.1864 -3.9492 -4.0169 l0 -8.1524 c0 -0.15254 -0.067797 -0.22034 -0.22034 -0.22034 l-0.88136 0 c-0.16949 0 -0.23729 0.067797 -0.23729 0.22034 l0 8.3388 c0.016784 2.7292 1.9659 5.1186 5.288 5.1186 c3.339 0 5.3559 -2.3895 5.3729 -5.1186 l0 -8.3388 c0 -0.16966 -0.067797 -0.22051 -0.20339 -0.22051 z M31.52544576271186 6.441000000000001 l-0.86441 0 c-0.15254 0 -0.22034 0.067797 -0.22034 0.22034 l0 13.119 c0 0.13559 0.067797 0.22017 0.22034 0.22017 l0.88136 0 c0.11864 0 0.20339 -0.08458 0.20339 -0.22017 l0 -13.119 c0 -0.15254 -0.084746 -0.22034 -0.22034 -0.22034 z M42.35589491525424 18.712 c0.13559 0 0.20339 0.084912 0.20339 0.23729 l0 0.83051 c0 0.15254 -0.067797 0.22017 -0.20339 0.22017 l-7.9492 0 c-0.15254 0 -0.20339 -0.10153 -0.20339 -0.22017 l0 -13.119 c0 -0.15254 0.067797 -0.22034 0.22034 -0.22034 l0.89831 0 c0.13559 0 0.22034 0.067797 0.22034 0.22034 l0 12.051 l6.8136 0 z M49.30492542372881 6.441000000000001 c4.6271 0 6.9153 3.4239 6.9153 6.6949 c0 3.4576 -2.3051 6.8642 -6.8644 6.8642 l-4.6271 0 c-0.15254 0 -0.22034 -0.08458 -0.22034 -0.22017 l0 -13.119 c0 -0.15254 0.067797 -0.22034 0.22034 -0.22034 l4.5763 0 z M49.42352542372881 18.7122 c3.5422 0 5.4576 -2.7798 5.4407 -5.5764 c0 -2.7797 -1.8644 -5.4066 -5.4407 -5.4066 l-3.5932 0 l0.016949 10.983 l3.5763 0 z"></path></g>
			</g>
		</svg>
	